REM DIRINDEX 1\2\6,1\2\7,1\2\8,1\3\9,1\3\10,1\3\11,1\4\12,1\4\13,1\4\14,1\5\15,1\5\16,1\5\17,1\5\18
REM DIRNAME cjc019,folder01,folder02,folder03,folder04,folder05,folder06,folder07,folder08,folder09,folder10,folder11,folder12,folder13,folder14,folder15,folder16,folder17
TITLE ""
FILE "2Q_j_1513-1526.mp3" MP3
  TRACK 01 AUDIO
    TITLE "6:cjc019_1002"
    INDEX 01 00:00:00
  TRACK 02 AUDIO
    TITLE "0:"
    INDEX 01 00:02:20
  TRACK 03 AUDIO
    TITLE "7:cjc019_1003"
    INDEX 01 00:03:04
  TRACK 04 AUDIO
    TITLE "0:"
    INDEX 01 00:08:17
  TRACK 05 AUDIO
    TITLE "8:cjc019_1004"
    INDEX 01 00:08:70
  TRACK 06 AUDIO
    TITLE "0:"
    INDEX 01 00:12:71
  TRACK 07 AUDIO
    TITLE "6:cjc019_1005"
    INDEX 01 00:13:57
  TRACK 08 AUDIO
    TITLE "0:"
    INDEX 01 00:15:34
  TRACK 09 AUDIO
    TITLE "7:cjc019_1006"
    INDEX 01 00:16:12
  TRACK 10 AUDIO
    TITLE "0:"
    INDEX 01 00:18:07
  TRACK 11 AUDIO
    TITLE "8:cjc019_1007"
    INDEX 01 00:18:60
  TRACK 12 AUDIO
    TITLE "0:"
    INDEX 01 00:21:72
  TRACK 13 AUDIO
    TITLE "6:cjc019_1008"
    INDEX 01 00:22:52
  TRACK 14 AUDIO
    TITLE "0:"
    INDEX 01 00:24:72
  TRACK 15 AUDIO
    TITLE "7:cjc019_1009"
    INDEX 01 00:25:56
  TRACK 16 AUDIO
    TITLE "0:"
    INDEX 01 00:28:13
  TRACK 17 AUDIO
    TITLE "8:cjc019_1010"
    INDEX 01 00:28:66
  TRACK 18 AUDIO
    TITLE "0:"
    INDEX 01 00:34:10
  TRACK 19 AUDIO
    TITLE "6:cjc019_1011"
    INDEX 01 00:34:61
  TRACK 20 AUDIO
    TITLE "0:"
    INDEX 01 00:36:27
  TRACK 21 AUDIO
    TITLE "7:cjc019_1012"
    INDEX 01 00:37:08
  TRACK 22 AUDIO
    TITLE "0:"
    INDEX 01 00:38:53
  TRACK 23 AUDIO
    TITLE "8:cjc019_1013"
    INDEX 01 00:39:33
  TRACK 24 AUDIO
    TITLE "0:"
    INDEX 01 00:44:52
  TRACK 25 AUDIO
    TITLE "6:cjc019_1014"
    INDEX 01 00:45:32
  TRACK 26 AUDIO
    TITLE "0:"
    INDEX 01 00:46:58
  TRACK 27 AUDIO
    TITLE "7:cjc019_1015"
    INDEX 01 00:47:44
  TRACK 28 AUDIO
    TITLE "0:"
    INDEX 01 00:49:41
  TRACK 29 AUDIO
    TITLE "8:cjc019_1016"
    INDEX 01 00:50:27
  TRACK 30 AUDIO
    TITLE "0:"
    INDEX 01 00:55:34
  TRACK 31 AUDIO
    TITLE "6:cjc019_1017"
    INDEX 01 00:56:20
  TRACK 32 AUDIO
    TITLE "0:"
    INDEX 01 00:57:60
  TRACK 33 AUDIO
    TITLE "7:cjc019_1018"
    INDEX 01 00:58:42
  TRACK 34 AUDIO
    TITLE "0:"
    INDEX 01 00:59:51
  TRACK 35 AUDIO
    TITLE "8:cjc019_1019"
    INDEX 01 01:00:27
  TRACK 36 AUDIO
    TITLE "0:"
    INDEX 01 01:03:67
  TRACK 37 AUDIO
    TITLE "6:cjc019_1020"
    INDEX 01 01:04:48
  TRACK 38 AUDIO
    TITLE "0:"
    INDEX 01 01:06:04
  TRACK 39 AUDIO
    TITLE "7:cjc019_1021"
    INDEX 01 01:06:53
  TRACK 40 AUDIO
    TITLE "0:"
    INDEX 01 01:08:56
  TRACK 41 AUDIO
    TITLE "8:cjc019_1022"
    INDEX 01 01:09:32
  TRACK 42 AUDIO
    TITLE "0:"
    INDEX 01 01:14:25
  TRACK 43 AUDIO
    TITLE "6:cjc019_1023"
    INDEX 01 01:15:13
  TRACK 44 AUDIO
    TITLE "0:"
    INDEX 01 01:16:42
  TRACK 45 AUDIO
    TITLE "7:cjc019_1024"
    INDEX 01 01:17:24
  TRACK 46 AUDIO
    TITLE "0:"
    INDEX 01 01:19:34
  TRACK 47 AUDIO
    TITLE "8:cjc019_1025"
    INDEX 01 01:20:14
  TRACK 48 AUDIO
    TITLE "0:"
    INDEX 01 01:22:62
  TRACK 49 AUDIO
    TITLE "6:cjc019_1026"
    INDEX 01 01:23:46
  TRACK 50 AUDIO
    TITLE "0:"
    INDEX 01 01:25:11
  TRACK 51 AUDIO
    TITLE "7:cjc019_1027"
    INDEX 01 01:25:66
  TRACK 52 AUDIO
    TITLE "0:"
    INDEX 01 01:27:73
  TRACK 53 AUDIO
    TITLE "8:cjc019_1028"
    INDEX 01 01:28:53
  TRACK 54 AUDIO
    TITLE "0:"
    INDEX 01 01:34:14
  TRACK 55 AUDIO
    TITLE "6:cjc019_1029"
    INDEX 01 01:34:69
  TRACK 56 AUDIO
    TITLE "0:"
    INDEX 01 01:36:27
  TRACK 57 AUDIO
    TITLE "7:cjc019_1030"
    INDEX 01 01:37:09
  TRACK 58 AUDIO
    TITLE "0:"
    INDEX 01 01:39:15
  TRACK 59 AUDIO
    TITLE "8:cjc019_1031"
    INDEX 01 01:39:70
  TRACK 60 AUDIO
    TITLE "0:"
    INDEX 01 01:44:48
  TRACK 61 AUDIO
    TITLE "6:cjc019_1032"
    INDEX 01 01:45:28
  TRACK 62 AUDIO
    TITLE "0:"
    INDEX 01 01:46:59
  TRACK 63 AUDIO
    TITLE "7:cjc019_1033"
    INDEX 01 01:47:40
  TRACK 64 AUDIO
    TITLE "0:"
    INDEX 01 01:48:69
  TRACK 65 AUDIO
    TITLE "8:cjc019_1034"
    INDEX 01 01:49:45
  TRACK 66 AUDIO
    TITLE "0:"
    INDEX 01 01:54:27
  TRACK 67 AUDIO
    TITLE "6:cjc019_1035"
    INDEX 01 01:55:09
  TRACK 68 AUDIO
    TITLE "0:"
    INDEX 01 01:57:35
  TRACK 69 AUDIO
    TITLE "7:cjc019_1036"
    INDEX 01 01:58:21
  TRACK 70 AUDIO
    TITLE "0:"
    INDEX 01 02:00:51
  TRACK 71 AUDIO
    TITLE "8:cjc019_1037"
    INDEX 01 02:01:27
  TRACK 72 AUDIO
    TITLE "0:"
    INDEX 01 02:05:50
  TRACK 73 AUDIO
    TITLE "6:cjc019_1038"
    INDEX 01 02:06:34
  TRACK 74 AUDIO
    TITLE "0:"
    INDEX 01 02:08:31
  TRACK 75 AUDIO
    TITLE "7:cjc019_1039"
    INDEX 01 02:09:17
  TRACK 76 AUDIO
    TITLE "0:"
    INDEX 01 02:11:19
  TRACK 77 AUDIO
    TITLE "8:cjc019_1040"
    INDEX 01 02:11:72
  TRACK 78 AUDIO
    TITLE "0:"
    INDEX 01 02:17:22
  TRACK 79 AUDIO
    TITLE "6:cjc019_1041"
    INDEX 01 02:18:04
  TRACK 80 AUDIO
    TITLE "0:"
    INDEX 01 02:19:23
  TRACK 81 AUDIO
    TITLE "7:cjc019_1042"
    INDEX 01 02:20:05
  TRACK 82 AUDIO
    TITLE "0:"
    INDEX 01 02:21:65
  TRACK 83 AUDIO
    TITLE "8:cjc019_1043"
    INDEX 01 02:22:39
  TRACK 84 AUDIO
    TITLE "0:"
    INDEX 01 02:27:13
